# xmcd
#
# Track frame offsets: 
#        150
#        17824
#        29594
#        43070
#        56499
#        74509
#        91668
#        108932
#        126865
#        144596
#        161886
#        179348
#        191553
#        207150
#
# Disc length: 2964 seconds
#
# Revision: 0
# Processed by: cddbd v1.5.2PL0 Copyright (c) Steve Scherf et al.
# Submitted via: ExactAudioCopy v1.0b1
#
DISCID=c90b920e
DTITLE=Hot Club of Cowtown - Rendezvous in Rhythm
DYEAR=2012
DGENRE=Western Swing
TTITLE0=Dark Eyes - "Ochi Chornye"
TTITLE1=I'm In The Mood For Love
TTITLE2=Crazy Rhythm
TTITLE3=Avalon
TTITLE4=If I Had You
TTITLE5=The Continental
TTITLE6=Minor Swing
TTITLE7=Melancholy Baby
TTITLE8=I'm Confessin'
TTITLE9=Sweet Sue, Just You
TTITLE10=Slow Boat To China
TTITLE11=Sunshine Of Your Smile
TTITLE12=Back In Your Own Backyard
TTITLE13=Douce Ambiance
EXTD=
EXTT0=
EXTT1=
EXTT2=
EXTT3=
EXTT4=
EXTT5=
EXTT6=
EXTT7=
EXTT8=
EXTT9=
EXTT10=
EXTT11=
EXTT12=
EXTT13=
PLAYORDER=
